<svg xmlns="http://www.w3.org/2000/svg" width="43" height="43" viewbox="0 0 43 43"> <path d="M21.5007963,0 C9.62722222,0 0,9.6245679 0,21.4997346 C0,33.3719815 9.62722222,43 21.5007963,43 C33.3741049,43 43,33.3719815 43,21.4997346 C43,9.6245679 33.3741049,0 21.5007963,0" style="fill: #0770FC;"></path> <path d="M32.4760912,29.5723299 C30.4801714,31.7675356 26.9034559,35.182559 26.7518408,35.3296311 C26.2821973,35.7762848 25.6775541,36 25.0749877,36 C24.4324407,36 23.7950859,35.7480614 23.3179136,35.2506575 C22.3895305,34.280707 22.4248381,32.7478434 23.3945,31.821393 C23.4298077,31.7861786 26.9974366,28.3809945 28.874972,26.3113697 C29.7628552,25.3336513 30.2096526,24.0783602 30.13047,22.7829351 C30.0463548,21.41009 29.3830385,20.121656 28.2602038,19.1550715 C26.7863696,17.8842447 23.875307,17.6017524 22.0551464,19.2314558 C20.9709943,20.1995938 19.657083,21.6257784 19.6448811,21.6402785 C18.7333729,22.6252469 17.1985292,22.6894615 16.210175,21.7847612 C15.2233785,20.8785074 15.1561383,19.3433134 16.0653099,18.3573092 C16.1260598,18.2910232 17.5505671,16.7449542 18.8117766,15.6178333 C22.2690692,12.5231059 27.9330889,12.4617396 31.4373718,15.4837078 C33.5592049,17.3117512 34.8170394,19.801101 34.9816353,22.4890499 C35.1418177,25.099061 34.2497807,27.6161163 32.4760912,29.5723299 M17.7831821,29.745036 C15.5336184,29.745036 13.2871701,29.0026847 11.5625479,27.5151337 C9.44149358,25.6873492 8.18365906,23.1998119 8.01776509,20.5103094 C7.86069804,17.9013341 8.74910046,15.3845377 10.5256457,13.4293598 C12.5194886,11.2323415 16.0967233,7.81654137 16.2475596,7.67205861 C17.2172215,6.74534933 18.7538825,6.78237628 19.6825252,7.74999644 C20.6088314,8.71891126 20.5758603,10.2538463 19.6056792,11.179261 C19.5690735,11.2139575 16.0040407,14.6188827 14.1252072,16.686695 C13.237324,17.6685563 12.7897478,18.9209991 12.8689304,20.2151296 C12.9538245,21.5890104 13.6171407,22.8777034 14.7386774,23.8450646 C16.2143289,25.1187396 19.124353,25.397089 20.945552,23.7704929 C22.0284061,22.7992477 23.3436155,21.3740988 23.3568559,21.3601166 C24.2647294,20.3730767 25.8032077,20.3098978 26.7897446,21.2174463 C27.7773199,22.1226644 27.8432621,23.6588942 26.9346097,24.6448983 C26.8743791,24.7075593 25.4477948,26.2528516 24.1878834,27.381526 C22.4326266,28.9542648 20.1064765,29.745036 17.7831821,29.745036" style="fill: white;"></path></svg>